# Blender 4.1.1
# www.blender.org
mtllib bottle.mtl
o 円柱
v -0.204028 0.599315 -0.212685
v -0.386640 0.983493 -0.212685
v -0.166553 0.617128 -0.208599
v -0.349166 1.001306 -0.208599
v -0.130519 0.634257 -0.196496
v -0.313131 1.018435 -0.196496
v -0.097309 0.650042 -0.176841
v -0.279921 1.034220 -0.176841
v -0.068201 0.663878 -0.150391
v -0.250813 1.048056 -0.150391
v -0.044312 0.675233 -0.118162
v -0.226924 1.059412 -0.118162
v -0.026561 0.683671 -0.081391
v -0.209173 1.067849 -0.081391
v -0.015630 0.688867 -0.041493
v -0.198242 1.073045 -0.041493
v -0.011939 0.690621 -0.000000
v -0.194551 1.074799 -0.000000
v -0.015630 0.688867 0.041493
v -0.198242 1.073045 0.041493
v -0.026561 0.683671 0.081391
v -0.209173 1.067849 0.081391
v -0.044312 0.675233 0.118162
v -0.226924 1.059412 0.118162
v -0.068201 0.663878 0.150391
v -0.250813 1.048056 0.150391
v -0.097309 0.650042 0.176841
v -0.279921 1.034220 0.176841
v -0.130519 0.634257 0.196496
v -0.313131 1.018435 0.196496
v -0.166553 0.617128 0.208599
v -0.349166 1.001306 0.208599
v -0.204028 0.599315 0.212685
v -0.386640 0.983493 0.212685
v -0.241503 0.581502 0.208599
v -0.424115 0.965680 0.208599
v -0.277537 0.564374 0.196496
v -0.460150 0.948552 0.196496
v -0.310747 0.548588 0.176841
v -0.493359 0.932766 0.176841
v -0.339856 0.534752 0.150391
v -0.522468 0.918930 0.150391
v -0.363744 0.523397 0.118162
v -0.546356 0.907575 0.118162
v -0.381495 0.514959 0.081391
v -0.564107 0.899138 0.081391
v -0.392426 0.509764 0.041493
v -0.575038 0.893942 0.041493
v -0.396117 0.508009 -0.000000
v -0.578729 0.892187 -0.000000
v -0.392426 0.509764 -0.041493
v -0.575038 0.893942 -0.041493
v -0.381495 0.514959 -0.081391
v -0.564107 0.899138 -0.081391
v -0.363744 0.523397 -0.118162
v -0.546356 0.907575 -0.118162
v -0.339856 0.534752 -0.150391
v -0.522468 0.918930 -0.150391
v -0.310747 0.548588 -0.176841
v -0.493359 0.932766 -0.176841
v -0.277537 0.564374 -0.196496
v -0.460150 0.948552 -0.196496
v -0.241503 0.581502 -0.208599
v -0.424115 0.965680 -0.208599
v -0.001656 0.572823 -0.171402
v 0.123510 0.546820 -0.273283
v 0.278480 0.484473 -0.386481
v 0.425653 0.377179 -0.473340
v 0.554999 0.232249 -0.527942
v 0.657704 0.059561 -0.546566
v 0.726769 -0.129119 -0.527942
v 0.757486 -0.320930 -0.473340
v 0.747763 -0.502802 -0.386481
v 0.698262 -0.662340 -0.273283
v 0.612356 -0.788672 -0.141462
v 0.062466 0.603302 -0.000000
v 0.225745 0.595415 -0.000000
v 0.423063 0.553198 -0.000000
v 0.602730 0.461349 -0.000000
v 0.752503 0.326129 -0.000000
v 0.862176 0.156752 -0.000000
v 0.924273 -0.035239 0.000000
v 0.934563 -0.236759 0.000000
v 0.892346 -0.434077 0.000000
v 0.800497 -0.613744 0.000000
v 0.665277 -0.763517 0.000000
v -0.001656 0.572823 0.171402
v 0.123510 0.546820 0.273283
v 0.278480 0.484473 0.386481
v 0.425653 0.377179 0.473340
v 0.554999 0.232249 0.527942
v 0.657704 0.059561 0.546566
v 0.726769 -0.129119 0.527942
v 0.757486 -0.320930 0.473340
v 0.747763 -0.502802 0.386481
v 0.698262 -0.662340 0.273283
v 0.612356 -0.788672 0.141462
v -0.156459 0.499240 0.242399
v -0.123309 0.429499 0.386481
v -0.070575 0.318556 0.546566
v -0.001850 0.173973 0.669404
v 0.078182 0.005603 0.746623
v 0.164067 -0.175081 0.772961
v 0.249952 -0.355765 0.746623
v 0.329984 -0.524135 0.669404
v 0.398709 -0.668718 0.546566
v 0.451443 -0.779661 0.386481
v 0.484593 -0.849402 0.200057
v -0.311263 0.425657 0.171402
v -0.370128 0.312178 0.273283
v -0.419629 0.152640 0.386481
v -0.429352 -0.029232 0.473340
v -0.398635 -0.221044 0.527942
v -0.329570 -0.409723 0.546566
v -0.226865 -0.582411 0.527942
v -0.097519 -0.727341 0.473340
v 0.049654 -0.834635 0.386481
v 0.204624 -0.896982 0.273283
v 0.356831 -0.910132 0.141462
v -0.375385 0.395178 -0.000000
v -0.472363 0.263582 -0.000000
v -0.564212 0.083915 -0.000000
v -0.606429 -0.113403 0.000000
v -0.596139 -0.314923 0.000000
v -0.534041 -0.506914 0.000000
v -0.424369 -0.676291 0.000000
v -0.274596 -0.811511 0.000000
v -0.094929 -0.903360 0.000000
v 0.102389 -0.945577 0.000000
v 0.303910 -0.935287 0.000000
v -0.311263 0.425657 -0.171402
v -0.370128 0.312178 -0.273283
v -0.419629 0.152640 -0.386481
v -0.429352 -0.029232 -0.473340
v -0.398635 -0.221044 -0.527942
v -0.329570 -0.409723 -0.546566
v -0.226865 -0.582411 -0.527942
v -0.097519 -0.727341 -0.473340
v 0.049654 -0.834635 -0.386481
v 0.204624 -0.896982 -0.273283
v 0.356831 -0.910132 -0.141462
v 0.495900 -0.873190 0.000000
v -0.156459 0.499240 -0.242399
v -0.123309 0.429499 -0.386481
v -0.070575 0.318556 -0.546566
v -0.001850 0.173973 -0.669404
v 0.078182 0.005603 -0.746623
v 0.164067 -0.175081 -0.772961
v 0.249952 -0.355765 -0.746623
v 0.329984 -0.524135 -0.669404
v 0.398709 -0.668718 -0.546566
v 0.451443 -0.779661 -0.386481
v 0.484593 -0.849402 -0.200057
v -0.146787 0.924476 -0.191290
v -0.075225 0.958492 -0.000000
v -0.146787 0.924476 0.191290
v -0.319553 0.842355 0.270525
v -0.492319 0.760234 0.191290
v -0.563881 0.726218 -0.000000
v -0.492319 0.760234 -0.191290
v -0.319553 0.842355 -0.270525
vn -0.2944 0.6193 -0.7279
vn 0.4226 -0.5583 -0.7139
vn 0.2944 -0.6193 -0.7279
vn -0.1661 0.6803 -0.7139
vn 0.5459 -0.4996 -0.6725
vn -0.0428 0.7389 -0.6725
vn 0.6596 -0.4457 -0.6052
vn 0.0709 0.7929 -0.6052
vn 0.7592 -0.3983 -0.5147
vn 0.1705 0.8402 -0.5147
vn 0.8410 -0.3595 -0.4044
vn 0.2522 0.8791 -0.4044
vn 0.9017 -0.3306 -0.2785
vn 0.3130 0.9080 -0.2786
vn 0.9391 -0.3128 -0.1420
vn 0.3504 0.9258 -0.1420
vn 0.9518 -0.3069 -0.0000
vn 0.3631 0.9318 -0.0000
vn 0.9391 -0.3128 0.1420
vn 0.3504 0.9258 0.1420
vn 0.9017 -0.3306 0.2785
vn 0.3130 0.9080 0.2786
vn 0.8410 -0.3595 0.4044
vn 0.2522 0.8791 0.4044
vn 0.7592 -0.3983 0.5147
vn 0.1705 0.8402 0.5147
vn 0.6596 -0.4457 0.6052
vn 0.0709 0.7929 0.6052
vn 0.5459 -0.4996 0.6725
vn -0.0428 0.7389 0.6725
vn 0.4226 -0.5583 0.7139
vn -0.1661 0.6803 0.7139
vn 0.2944 -0.6193 0.7279
vn -0.2944 0.6193 0.7279
vn 0.1661 -0.6802 0.7139
vn -0.4226 0.5583 0.7139
vn 0.0428 -0.7389 0.6725
vn -0.5460 0.4997 0.6725
vn -0.0709 -0.7929 0.6052
vn -0.6596 0.4456 0.6052
vn -0.1705 -0.8402 0.5147
vn -0.7592 0.3983 0.5147
vn -0.2522 -0.8791 0.4044
vn -0.8410 0.3594 0.4044
vn -0.3129 -0.9080 0.2785
vn -0.9017 0.3306 0.2786
vn -0.3504 -0.9258 0.1420
vn -0.9391 0.3128 0.1420
vn -0.3630 -0.9318 -0.0000
vn -0.9518 0.3068 -0.0000
vn -0.3504 -0.9258 -0.1420
vn -0.9391 0.3128 -0.1420
vn -0.3129 -0.9080 -0.2785
vn -0.9017 0.3306 -0.2786
vn -0.2523 -0.8791 -0.4044
vn -0.8410 0.3594 -0.4044
vn -0.1705 -0.8402 -0.5147
vn -0.7592 0.3983 -0.5147
vn -0.0709 -0.7929 -0.6052
vn -0.6596 0.4456 -0.6052
vn 0.0428 -0.7389 -0.6725
vn -0.5460 0.4997 -0.6725
vn 0.1661 -0.6802 -0.7139
vn -0.4226 0.5583 -0.7139
vn -0.2089 0.4395 -0.8736
vn 0.1646 0.8437 -0.5109
vn 0.3490 0.7047 -0.6177
vn 0.3658 -0.7695 -0.5235
vn 0.5954 -0.7771 -0.2041
vn 0.4110 -0.8647 -0.2887
vn 0.2089 -0.4395 -0.8736
vn 0.7260 0.0670 -0.6844
vn 0.7668 -0.1743 -0.6177
vn 0.5103 0.5207 -0.6844
vn -0.1078 0.2269 -0.9679
vn 0.4293 -0.9032 -0.0000
vn -0.3568 0.7505 -0.5563
vn 0.2989 0.7489 -0.5915
vn -0.0015 0.9194 -0.3933
vn 0.7582 -0.4051 -0.5109
vn 0.2968 -0.6244 -0.7225
vn -0.0000 -0.0000 -1.0000
vn 0.6386 0.3036 -0.7071
vn -0.2968 0.6244 -0.7225
vn 0.7001 -0.6106 -0.3702
vn 0.1078 -0.2269 -0.9679
vn 0.1456 0.9893 -0.0000
vn 0.9979 -0.0645 -0.0000
vn 0.9493 -0.3142 -0.0000
vn 0.9032 0.4293 -0.0000
vn 0.3557 0.9346 -0.0000
vn 0.8386 -0.5447 -0.0000
vn 0.9820 0.1887 -0.0000
vn 0.5801 0.8145 -0.0000
vn 0.6717 -0.7408 -0.0000
vn 0.7664 0.6424 -0.0000
vn 0.7001 -0.6106 0.3702
vn 0.5954 -0.7771 0.2041
vn 0.7260 0.0670 0.6844
vn 0.7668 -0.1743 0.6177
vn 0.5103 0.5207 0.6844
vn 0.5202 0.8541 -0.0000
vn -0.0015 0.9194 0.3933
vn 0.7582 -0.4051 0.5109
vn 0.6386 0.3036 0.7071
vn 0.1646 0.8437 0.5109
vn 0.3490 0.7047 0.6177
vn -0.3568 0.7505 0.5563
vn -0.2968 0.6244 0.7225
vn 0.3658 -0.7695 0.5235
vn -0.0000 -0.0000 1.0000
vn 0.1078 -0.2269 0.9679
vn -0.2089 0.4395 0.8736
vn 0.4110 -0.8647 0.2887
vn 0.2089 -0.4395 0.8736
vn -0.1078 0.2269 0.9679
vn 0.2989 0.7489 0.5915
vn 0.2968 -0.6244 0.7225
vn 0.2267 -0.9523 0.2041
vn -0.7695 0.2410 0.5915
vn -0.7120 0.5817 0.3933
vn -0.1646 -0.8437 0.5109
vn -0.7260 -0.0670 0.6844
vn -0.6386 -0.3036 0.7071
vn -0.7582 0.4051 0.5109
vn 0.0314 -0.9284 0.3702
vn -0.5103 -0.5207 0.6844
vn -0.7668 0.1743 0.6177
vn -0.3490 -0.7047 0.6177
vn -0.9979 0.0645 -0.0000
vn -0.1071 -0.9943 -0.0000
vn 0.1503 -0.9886 -0.0000
vn -0.5801 -0.8145 -0.0000
vn -0.9820 -0.1887 -0.0000
vn -0.8591 0.5117 -0.0000
vn -0.3557 -0.9346 -0.0000
vn -0.9032 -0.4293 -0.0000
vn -0.9493 0.3142 -0.0000
vn -0.7664 -0.6424 -0.0000
vn -0.7582 0.4051 -0.5109
vn 0.0314 -0.9284 -0.3702
vn -0.5103 -0.5207 -0.6844
vn -0.7668 0.1743 -0.6177
vn 0.2267 -0.9523 -0.2041
vn -0.3490 -0.7047 -0.6177
vn -0.7260 -0.0670 -0.6844
vn -0.7695 0.2410 -0.5915
vn -0.7120 0.5817 -0.3933
vn -0.1646 -0.8437 -0.5109
vn -0.6386 -0.3036 -0.7071
vn -0.2353 0.4950 -0.8365
vn -0.6052 -0.3694 -0.7052
vn 0.0317 -0.0667 -0.9973
vn -0.2353 0.4950 0.8365
vn -0.6052 -0.3694 0.7052
vn 0.6686 0.2361 0.7052
vn 0.0317 -0.0667 0.9973
vn -0.9907 0.1359 -0.0000
vn -0.8690 -0.4948 -0.0000
vn 0.6686 0.2361 -0.7052
vn 0.9324 0.3614 -0.0000
vt 0.993424 0.541058
vt 0.872075 0.552952
vt 0.872075 0.541058
vt 0.993424 0.552952
vt 0.872075 0.564847
vt 0.993424 0.564847
vt 0.872075 0.576741
vt 0.993424 0.576741
vt 0.872075 0.588635
vt 0.993424 0.588635
vt 0.872075 0.600530
vt 0.993424 0.600530
vt 0.872075 0.612424
vt 0.993424 0.612424
vt 0.872075 0.624318
vt 0.993424 0.624318
vt 0.872075 0.636213
vt 0.993425 0.636213
vt 0.872075 0.648107
vt 0.993425 0.648107
vt 0.872075 0.660001
vt 0.993425 0.660001
vt 0.872075 0.671896
vt 0.993425 0.671896
vt 0.872075 0.683790
vt 0.993425 0.683790
vt 0.872075 0.695684
vt 0.993425 0.695684
vt 0.872075 0.707579
vt 0.993425 0.707579
vt 0.872075 0.719473
vt 0.993425 0.719473
vt 0.872075 0.731368
vt 0.993425 0.731367
vt 0.872075 0.743262
vt 0.993425 0.743262
vt 0.872075 0.755156
vt 0.993425 0.755156
vt 0.872075 0.767051
vt 0.993425 0.767051
vt 0.872075 0.778945
vt 0.993425 0.778945
vt 0.872075 0.790839
vt 0.993425 0.790839
vt 0.872075 0.802734
vt 0.993425 0.802734
vt 0.872075 0.814628
vt 0.993425 0.814628
vt 0.872075 0.826522
vt 0.993425 0.826522
vt 0.872075 0.838417
vt 0.993425 0.838417
vt 0.872075 0.850311
vt 0.993425 0.850311
vt 0.872075 0.862205
vt 0.993425 0.862205
vt 0.872075 0.874100
vt 0.993425 0.874100
vt 0.872075 0.885994
vt 0.993425 0.885994
vt 0.872075 0.897888
vt 0.007552 0.061987
vt 0.073882 0.007552
vt 0.128317 0.073882
vt 0.993425 0.897888
vt 0.872075 0.909783
vt 0.993425 0.909783
vt 0.872075 0.921677
vt 0.125997 0.780213
vt 0.085548 0.855888
vt 0.009872 0.815439
vt 0.430913 0.446161
vt 0.427753 0.435004
vt 0.432521 0.438112
vt 0.439986 0.444130
vt 0.440743 0.443452
vt 0.440666 0.443966
vt 0.438321 0.444493
vt 0.437790 0.441577
vt 0.438751 0.442185
vt 0.434857 0.439630
vt 0.433966 0.445471
vt 0.441317 0.443805
vt 0.414320 0.449258
vt 0.378468 0.404404
vt 0.415331 0.427129
vt 0.439493 0.442654
vt 0.439231 0.444285
vt 0.435796 0.445059
vt 0.436615 0.440769
vt 0.426377 0.447233
vt 0.440149 0.443069
vt 0.437263 0.444732
vt 0.435891 0.417276
vt 0.440655 0.440807
vt 0.440854 0.441720
vt 0.440171 0.438343
vt 0.438510 0.428999
vt 0.441019 0.442473
vt 0.440420 0.439740
vt 0.439245 0.433409
vt 0.441169 0.443144
vt 0.439829 0.436441
vt 0.442049 0.442631
vt 0.441683 0.443232
vt 0.443585 0.440261
vt 0.442965 0.441231
vt 0.445404 0.437514
vt 0.427139 0.381337
vt 0.454793 0.423043
vt 0.442488 0.441980
vt 0.444330 0.439104
vt 0.449646 0.430982
vt 0.446854 0.435287
vt 0.467359 0.437625
vt 0.455805 0.440488
vt 0.442663 0.443491
vt 0.446805 0.442573
vt 0.445370 0.442898
vt 0.451510 0.441503
vt 0.441980 0.443654
vt 0.444323 0.443135
vt 0.448573 0.442173
vt 0.468601 0.397738
vt 0.443417 0.443339
vt 0.441906 0.444168
vt 0.492286 0.473831
vt 0.463324 0.457231
vt 0.443159 0.444969
vt 0.447763 0.447847
vt 0.446036 0.446771
vt 0.454569 0.452022
vt 0.442506 0.444535
vt 0.444878 0.446048
vt 0.450047 0.449257
vt 0.443909 0.445440
vt 0.443717 0.454161
vt 0.441647 0.445151
vt 0.441480 0.444467
vt 0.442011 0.446820
vt 0.443011 0.451142
vt 0.447740 0.470813
vt 0.441802 0.445908
vt 0.442590 0.449332
vt 0.444783 0.458621
vt 0.442254 0.447876
vt 0.432903 0.457301
vt 0.440600 0.444995
vt 0.439083 0.447387
vt 0.435797 0.452657
vt 0.440966 0.444393
vt 0.439695 0.446407
vt 0.437252 0.450322
vt 0.408450 0.498306
vt 0.427285 0.466254
vt 0.440167 0.445651
vt 0.438350 0.448561
vt 0.385221 0.457023
vt 0.200427 0.870626
vt 0.007801 0.561416
vt 0.489562 0.431321
vt 0.856448 0.683611
vt 0.700388 0.035574
vt 0.862348 0.340349
vt 0.454395 0.495768
vt 0.556660 0.866379
vt 0.007801 0.192640
vt 0.335989 0.007847
vt 0.125997 0.085548
vt 0.121445 0.096537
vt 0.114837 0.106426
vt 0.106426 0.114837
vt 0.096537 0.121445
vt 0.085548 0.125997
vt 0.073882 0.128317
vt 0.061987 0.128317
vt 0.050322 0.125997
vt 0.039333 0.121445
vt 0.029443 0.114837
vt 0.021032 0.106426
vt 0.014424 0.096537
vt 0.009872 0.085548
vt 0.007552 0.073882
vt 0.009872 0.050322
vt 0.029443 0.021032
vt 0.014424 0.039333
vt 0.021032 0.029443
vt 0.039333 0.014424
vt 0.050322 0.009872
vt 0.061987 0.007552
vt 0.085548 0.009872
vt 0.114837 0.029443
vt 0.096537 0.014424
vt 0.106426 0.021032
vt 0.121445 0.039333
vt 0.125997 0.050322
vt 0.128317 0.061987
vt 0.993425 0.921677
vt 0.007552 0.803773
vt 0.007552 0.791879
vt 0.009872 0.780213
vt 0.014424 0.769224
vt 0.021032 0.759334
vt 0.029443 0.750923
vt 0.039333 0.744315
vt 0.050322 0.739764
vt 0.061987 0.737443
vt 0.073882 0.737443
vt 0.085548 0.739764
vt 0.096537 0.744315
vt 0.106426 0.750923
vt 0.114837 0.759334
vt 0.121445 0.769224
vt 0.128317 0.791879
vt 0.128317 0.803773
vt 0.125997 0.815439
vt 0.121445 0.826428
vt 0.114837 0.836317
vt 0.106426 0.844728
vt 0.096537 0.851336
vt 0.073882 0.858208
vt 0.061987 0.858208
vt 0.050322 0.855888
vt 0.039333 0.851336
vt 0.029443 0.844728
vt 0.021032 0.836317
vt 0.014424 0.826428
s 1
usemtl マテリアル
f 2/1/1 3/2/2 1/3/3
f 4/4/4 5/5/5 3/2/2
f 6/6/6 7/7/7 5/5/5
f 8/8/8 9/9/9 7/7/7
f 10/10/10 11/11/11 9/9/9
f 12/12/12 13/13/13 11/11/11
f 14/14/14 15/15/15 13/13/13
f 16/16/16 17/17/17 15/15/15
f 18/18/18 19/19/19 17/17/17
f 20/20/20 21/21/21 19/19/19
f 22/22/22 23/23/23 21/21/21
f 24/24/24 25/25/25 23/23/23
f 26/26/26 27/27/27 25/25/25
f 28/28/28 29/29/29 27/27/27
f 30/30/30 31/31/31 29/29/29
f 32/32/32 33/33/33 31/31/31
f 34/34/34 35/35/35 33/33/33
f 36/36/36 37/37/37 35/35/35
f 38/38/38 39/39/39 37/37/37
f 40/40/40 41/41/41 39/39/39
f 42/42/42 43/43/43 41/41/41
f 44/44/44 45/45/45 43/43/43
f 46/46/46 47/47/47 45/45/45
f 48/48/48 49/49/49 47/47/47
f 50/50/50 51/51/51 49/49/49
f 52/52/52 53/53/53 51/51/51
f 54/54/54 55/55/55 53/53/53
f 56/56/56 57/57/57 55/55/55
f 58/58/58 59/59/59 57/57/57
f 60/60/60 61/61/61 59/59/59
f 38/62/38 22/63/22 6/64/6
f 62/65/62 63/66/63 61/61/61
f 64/67/64 1/68/3 63/66/63
f 31/69/31 47/70/47 63/71/63
f 146/72/65 67/73/66 68/74/67
f 152/75/68 75/76/69 153/77/70
f 150/78/71 71/79/72 72/80/73
f 146/72/65 69/81/74 147/82/75
f 142/83/76 153/77/70 75/76/69
f 144/84/77 65/85/78 66/86/79
f 150/78/71 73/87/80 151/88/81
f 148/89/82 69/81/74 70/90/83
f 145/91/84 66/86/79 67/73/66
f 151/88/81 74/92/85 152/75/68
f 148/89/82 71/79/72 149/93/86
f 65/85/78 77/94/87 66/86/79
f 73/87/80 83/95/88 84/96/89
f 69/81/74 81/97/90 70/90/83
f 66/86/79 78/98/91 67/73/66
f 74/92/85 84/96/89 85/99/92
f 70/90/83 82/100/93 71/79/72
f 67/73/66 79/101/94 68/74/67
f 74/92/85 86/102/95 75/76/69
f 71/79/72 83/95/88 72/80/73
f 69/81/74 79/101/94 80/103/96
f 142/83/76 75/76/69 86/102/95
f 86/102/95 96/104/97 97/105/98
f 83/95/88 93/106/99 94/107/100
f 79/101/94 91/108/101 80/103/96
f 142/83/76 86/102/95 97/105/98
f 76/109/102 88/110/103 77/94/87
f 83/95/88 95/111/104 84/96/89
f 80/103/96 92/112/105 81/97/90
f 77/94/87 89/113/106 78/98/91
f 84/96/89 96/104/97 85/99/92
f 81/97/90 93/106/99 82/100/93
f 79/101/94 89/113/106 90/114/107
f 89/113/106 99/115/108 100/116/109
f 95/111/104 107/117/110 96/104/97
f 93/106/99 103/118/111 104/119/112
f 89/113/106 101/120/113 90/114/107
f 97/105/98 107/117/110 108/121/114
f 93/106/99 105/122/115 94/107/100
f 91/108/101 101/120/113 102/123/116
f 142/83/76 97/105/98 108/121/114
f 87/124/117 99/115/108 88/110/103
f 95/111/104 105/122/115 106/125/118
f 91/108/101 103/118/111 92/112/105
f 142/83/76 108/121/114 119/126/119
f 99/115/108 109/127/120 110/128/121
f 105/122/115 117/129/122 106/125/118
f 103/118/111 113/130/123 114/131/124
f 99/115/108 111/132/125 100/116/109
f 106/125/118 118/133/126 107/117/110
f 103/118/111 115/134/127 104/119/112
f 101/120/113 111/132/125 112/135/128
f 107/117/110 119/126/119 108/121/114
f 105/122/115 115/134/127 116/136/129
f 101/120/113 113/130/123 102/123/116
f 111/132/125 123/137/130 112/135/128
f 119/126/119 129/138/131 130/139/132
f 115/134/127 127/140/133 116/136/129
f 113/130/123 123/137/130 124/141/134
f 142/83/76 119/126/119 130/139/132
f 109/127/120 121/142/135 110/128/121
f 117/129/122 127/140/133 128/143/136
f 113/130/123 125/144/137 114/131/124
f 111/132/125 121/142/135 122/145/138
f 117/129/122 129/138/131 118/133/126
f 115/134/127 125/144/137 126/146/139
f 121/142/135 133/147/140 122/145/138
f 128/143/136 140/148/141 129/138/131
f 125/144/137 137/149/142 126/146/139
f 123/137/130 133/147/140 134/150/143
f 129/138/131 141/151/144 130/139/132
f 127/140/133 137/149/142 138/152/145
f 123/137/130 135/153/146 124/141/134
f 142/83/76 130/139/132 141/151/144
f 121/142/135 131/154/147 132/155/148
f 127/140/133 139/156/149 128/143/136
f 125/144/137 135/153/146 136/157/150
f 135/153/146 146/72/65 147/82/75
f 142/83/76 141/151/144 153/77/70
f 131/154/147 144/84/77 132/155/148
f 139/156/149 150/78/71 151/88/81
f 135/153/146 148/89/82 136/157/150
f 133/147/140 144/84/77 145/91/84
f 139/156/149 152/75/68 140/148/141
f 137/149/142 148/89/82 149/93/86
f 133/147/140 146/72/65 134/150/143
f 141/151/144 152/75/68 153/77/70
f 137/149/142 150/78/71 138/152/145
f 143/158/151 160/159/152 161/160/153
f 98/161/154 158/162/155 109/127/120
f 98/161/154 156/163/156 157/164/157
f 120/165/158 160/159/152 131/154/147
f 120/165/158 158/162/155 159/166/159
f 143/158/151 154/167/160 65/85/78
f 76/109/102 154/167/160 155/168/161
f 76/109/102 156/163/156 87/124/117
f 2/1/1 4/4/4 3/2/2
f 4/4/4 6/6/6 5/5/5
f 6/6/6 8/8/8 7/7/7
f 8/8/8 10/10/10 9/9/9
f 10/10/10 12/12/12 11/11/11
f 12/12/12 14/14/14 13/13/13
f 14/14/14 16/16/16 15/15/15
f 16/16/16 18/18/18 17/17/17
f 18/18/18 20/20/20 19/19/19
f 20/20/20 22/22/22 21/21/21
f 22/22/22 24/24/24 23/23/23
f 24/24/24 26/26/26 25/25/25
f 26/26/26 28/28/28 27/27/27
f 28/28/28 30/30/30 29/29/29
f 30/30/30 32/32/32 31/31/31
f 32/32/32 34/34/34 33/33/33
f 34/34/34 36/36/36 35/35/35
f 36/36/36 38/38/38 37/37/37
f 38/38/38 40/40/40 39/39/39
f 40/40/40 42/42/42 41/41/41
f 42/42/42 44/44/44 43/43/43
f 44/44/44 46/46/46 45/45/45
f 46/46/46 48/48/48 47/47/47
f 48/48/48 50/50/50 49/49/49
f 50/50/50 52/52/52 51/51/51
f 52/52/52 54/54/54 53/53/53
f 54/54/54 56/56/56 55/55/55
f 56/56/56 58/58/58 57/57/57
f 58/58/58 60/60/60 59/59/59
f 60/60/60 62/65/62 61/61/61
f 6/64/6 4/169/4 2/170/1
f 2/170/1 64/171/64 6/64/6
f 64/171/64 62/172/62 6/64/6
f 62/172/62 60/173/60 58/174/58
f 58/174/58 56/175/56 54/176/54
f 54/176/54 52/177/52 50/178/50
f 50/178/50 48/179/48 54/176/54
f 48/179/48 46/180/46 54/176/54
f 46/180/46 44/181/44 42/182/42
f 42/182/42 40/183/40 38/62/38
f 38/62/38 36/184/36 30/185/30
f 36/184/36 34/186/34 30/185/30
f 34/186/34 32/187/32 30/185/30
f 30/185/30 28/188/28 26/189/26
f 26/189/26 24/190/24 22/63/22
f 22/63/22 20/191/20 14/192/14
f 20/191/20 18/193/18 14/192/14
f 18/193/18 16/194/16 14/192/14
f 14/192/14 12/195/12 10/196/10
f 10/196/10 8/197/8 6/64/6
f 62/172/62 58/174/58 6/64/6
f 58/174/58 54/176/54 6/64/6
f 46/180/46 42/182/42 54/176/54
f 42/182/42 38/62/38 54/176/54
f 30/185/30 26/189/26 38/62/38
f 26/189/26 22/63/22 38/62/38
f 14/192/14 10/196/10 22/63/22
f 10/196/10 6/64/6 22/63/22
f 6/64/6 54/176/54 38/62/38
f 62/65/62 64/67/64 63/66/63
f 64/67/64 2/198/1 1/68/3
f 63/71/63 1/199/3 3/200/2
f 3/200/2 5/201/5 7/202/7
f 7/202/7 9/203/9 11/204/11
f 11/204/11 13/205/13 15/206/15
f 15/206/15 17/207/17 19/208/19
f 19/208/19 21/209/21 23/210/23
f 23/210/23 25/211/25 27/212/27
f 27/212/27 29/213/29 31/69/31
f 31/69/31 33/214/33 35/215/35
f 35/215/35 37/216/37 39/217/39
f 39/217/39 41/218/41 43/219/43
f 43/219/43 45/220/45 47/70/47
f 47/70/47 49/221/49 51/222/51
f 51/222/51 53/223/53 55/224/55
f 55/224/55 57/225/57 59/226/59
f 59/226/59 61/227/61 63/71/63
f 63/71/63 3/200/2 15/206/15
f 3/200/2 7/202/7 15/206/15
f 7/202/7 11/204/11 15/206/15
f 15/206/15 19/208/19 31/69/31
f 19/208/19 23/210/23 31/69/31
f 23/210/23 27/212/27 31/69/31
f 31/69/31 35/215/35 47/70/47
f 35/215/35 39/217/39 47/70/47
f 39/217/39 43/219/43 47/70/47
f 47/70/47 51/222/51 63/71/63
f 51/222/51 55/224/55 63/71/63
f 55/224/55 59/226/59 63/71/63
f 63/71/63 15/206/15 31/69/31
f 146/72/65 145/91/84 67/73/66
f 152/75/68 74/92/85 75/76/69
f 150/78/71 149/93/86 71/79/72
f 146/72/65 68/74/67 69/81/74
f 144/84/77 143/158/151 65/85/78
f 150/78/71 72/80/73 73/87/80
f 148/89/82 147/82/75 69/81/74
f 145/91/84 144/84/77 66/86/79
f 151/88/81 73/87/80 74/92/85
f 148/89/82 70/90/83 71/79/72
f 65/85/78 76/109/102 77/94/87
f 73/87/80 72/80/73 83/95/88
f 69/81/74 80/103/96 81/97/90
f 66/86/79 77/94/87 78/98/91
f 74/92/85 73/87/80 84/96/89
f 70/90/83 81/97/90 82/100/93
f 67/73/66 78/98/91 79/101/94
f 74/92/85 85/99/92 86/102/95
f 71/79/72 82/100/93 83/95/88
f 69/81/74 68/74/67 79/101/94
f 86/102/95 85/99/92 96/104/97
f 83/95/88 82/100/93 93/106/99
f 79/101/94 90/114/107 91/108/101
f 76/109/102 87/124/117 88/110/103
f 83/95/88 94/107/100 95/111/104
f 80/103/96 91/108/101 92/112/105
f 77/94/87 88/110/103 89/113/106
f 84/96/89 95/111/104 96/104/97
f 81/97/90 92/112/105 93/106/99
f 79/101/94 78/98/91 89/113/106
f 89/113/106 88/110/103 99/115/108
f 95/111/104 106/125/118 107/117/110
f 93/106/99 92/112/105 103/118/111
f 89/113/106 100/116/109 101/120/113
f 97/105/98 96/104/97 107/117/110
f 93/106/99 104/119/112 105/122/115
f 91/108/101 90/114/107 101/120/113
f 87/124/117 98/161/154 99/115/108
f 95/111/104 94/107/100 105/122/115
f 91/108/101 102/123/116 103/118/111
f 99/115/108 98/161/154 109/127/120
f 105/122/115 116/136/129 117/129/122
f 103/118/111 102/123/116 113/130/123
f 99/115/108 110/128/121 111/132/125
f 106/125/118 117/129/122 118/133/126
f 103/118/111 114/131/124 115/134/127
f 101/120/113 100/116/109 111/132/125
f 107/117/110 118/133/126 119/126/119
f 105/122/115 104/119/112 115/134/127
f 101/120/113 112/135/128 113/130/123
f 111/132/125 122/145/138 123/137/130
f 119/126/119 118/133/126 129/138/131
f 115/134/127 126/146/139 127/140/133
f 113/130/123 112/135/128 123/137/130
f 109/127/120 120/165/158 121/142/135
f 117/129/122 116/136/129 127/140/133
f 113/130/123 124/141/134 125/144/137
f 111/132/125 110/128/121 121/142/135
f 117/129/122 128/143/136 129/138/131
f 115/134/127 114/131/124 125/144/137
f 121/142/135 132/155/148 133/147/140
f 128/143/136 139/156/149 140/148/141
f 125/144/137 136/157/150 137/149/142
f 123/137/130 122/145/138 133/147/140
f 129/138/131 140/148/141 141/151/144
f 127/140/133 126/146/139 137/149/142
f 123/137/130 134/150/143 135/153/146
f 121/142/135 120/165/158 131/154/147
f 127/140/133 138/152/145 139/156/149
f 125/144/137 124/141/134 135/153/146
f 135/153/146 134/150/143 146/72/65
f 131/154/147 143/158/151 144/84/77
f 139/156/149 138/152/145 150/78/71
f 135/153/146 147/82/75 148/89/82
f 133/147/140 132/155/148 144/84/77
f 139/156/149 151/88/81 152/75/68
f 137/149/142 136/157/150 148/89/82
f 133/147/140 145/91/84 146/72/65
f 141/151/144 140/148/141 152/75/68
f 137/149/142 149/93/86 150/78/71
f 143/158/151 131/154/147 160/159/152
f 98/161/154 157/164/157 158/162/155
f 98/161/154 87/124/117 156/163/156
f 120/165/158 159/166/159 160/159/152
f 120/165/158 109/127/120 158/162/155
f 143/158/151 161/160/153 154/167/160
f 76/109/102 65/85/78 154/167/160
f 76/109/102 155/168/161 156/163/156
