# Blender 4.1.1
# www.blender.org
mtllib chest.mtl
o 円柱
v -1.072319 0.132440 -0.717606
v 1.072319 0.131909 -0.717606
v -1.072319 0.132440 0.717606
v 1.072319 0.131910 0.717606
v -1.072284 0.272438 0.703817
v 1.072353 0.271907 0.703817
v -1.072251 0.407055 0.662982
v 1.072386 0.406525 0.662982
v -1.072220 0.531120 0.596668
v 1.072417 0.530590 0.596668
v -1.072193 0.639863 0.507424
v 1.072444 0.639333 0.507424
v -1.072171 0.729107 0.398680
v 1.072466 0.728576 0.398680
v -1.072155 0.795421 0.274615
v 1.072483 0.794890 0.274615
v -1.072145 0.836257 0.139998
v 1.072493 0.835726 0.139998
v -1.072141 0.850045 -0.000000
v 1.072496 0.849515 -0.000000
v -1.072145 0.836257 -0.139998
v 1.072493 0.835726 -0.139998
v -1.072155 0.795421 -0.274616
v 1.072483 0.794890 -0.274616
v -1.072171 0.729107 -0.398680
v 1.072466 0.728576 -0.398680
v -1.072193 0.639863 -0.507424
v 1.072444 0.639333 -0.507424
v -1.072220 0.531120 -0.596668
v 1.072417 0.530590 -0.596668
v -1.072251 0.407055 -0.662982
v 1.072386 0.406525 -0.662982
v -1.072284 0.272438 -0.703817
v 1.072353 0.271907 -0.703817
v -0.915164 -0.933520 0.617196
v -1.074063 0.145962 0.724360
v -0.915164 -0.933520 -0.617196
v -1.074063 0.145962 -0.724360
v 0.915164 -0.933520 0.617196
v 1.074063 0.145962 0.724360
v 0.915164 -0.933520 -0.617196
v 1.074063 0.145962 -0.724360
v -0.922832 -0.881428 0.552076
v -1.066396 0.093870 0.648896
v -1.066396 0.093870 -0.648896
v -0.922832 -0.881428 -0.552076
v -0.818604 -0.881428 -0.622367
v -0.962169 0.093870 -0.719188
v 0.962169 0.093870 -0.719188
v 0.818604 -0.881428 -0.622367
v 0.922832 -0.881428 -0.552076
v 1.066396 0.093870 -0.648896
v 1.066396 0.093870 0.648896
v 0.922832 -0.881428 0.552076
v 0.818604 -0.881428 0.622367
v 0.962169 0.093870 0.719188
v -0.962169 0.093870 0.719188
v -0.818604 -0.881428 0.622367
v -0.804730 -0.877038 0.552076
v -0.948294 0.098260 0.648896
v -0.804730 -0.877038 -0.552076
v -0.948294 0.098260 -0.648896
v -0.962169 0.098260 -0.639540
v -0.818604 -0.877038 -0.542719
v 0.818604 -0.877038 -0.542719
v 0.962169 0.098260 -0.639540
v 0.948294 0.098260 -0.648896
v 0.804730 -0.877038 -0.552076
v 0.804730 -0.877038 0.552076
v 0.948294 0.098260 0.648896
v 0.962169 0.098260 0.639539
v 0.818604 -0.877038 0.542719
v -0.818604 -0.877038 0.542719
v -0.962169 0.098260 0.639539
v -0.141999 0.006234 -0.588183
v -0.141999 0.206271 -0.588183
v -0.141999 0.006234 -0.753269
v -0.141999 0.206271 -0.753269
v 0.141999 0.006234 -0.588183
v 0.141999 0.206271 -0.588183
v 0.141999 0.006234 -0.753269
v 0.141999 0.206271 -0.753269
vn 1.0000 -0.0002 -0.0000
vn -1.0000 0.0002 -0.0000
vn -0.0000 0.0980 0.9952
vn 0.0001 0.2903 0.9569
vn 0.0001 0.4714 0.8819
vn 0.0002 0.6344 0.7730
vn 0.0002 0.7730 0.6344
vn 0.0002 0.8819 0.4714
vn 0.0002 0.9569 0.2903
vn 0.0002 0.9952 0.0980
vn 0.0002 0.9952 -0.0980
vn 0.0002 0.9569 -0.2903
vn 0.0002 0.8819 -0.4714
vn 0.0002 0.7730 -0.6344
vn 0.0002 0.6344 -0.7730
vn 0.0001 0.4714 -0.8819
vn 0.0001 0.2903 -0.9569
vn -0.0000 0.0980 -0.9952
vn 0.0037 0.0983 0.9952
vn -0.0371 0.9993 -0.0000
vn 0.9894 0.1449 -0.0080
vn -0.0037 0.0983 -0.9952
vn -0.0000 -1.0000 -0.0000
vn -0.0000 1.0000 -0.0000
vn -0.9893 -0.1456 -0.0000
vn -0.0000 -0.0988 -0.9951
vn 0.9893 -0.1456 -0.0000
vn -0.0000 -0.0988 0.9951
vn -0.0000 0.9985 -0.0550
vn -0.9894 0.1449 0.0080
vn 0.0371 -0.9993 -0.0000
vn 0.0371 0.9993 -0.0000
vn -0.0000 -0.9985 0.0550
vn -0.0000 0.9985 0.0550
vn -0.0037 0.0983 0.9952
vn -0.0371 -0.9993 -0.0000
vn -0.9894 0.1449 -0.0080
vn -0.0000 -0.9985 -0.0550
vn 0.0037 0.0983 -0.9952
vn 0.9894 0.1449 0.0080
vn -1.0000 -0.0000 -0.0000
vn -0.0000 -0.0000 -1.0000
vn 1.0000 -0.0000 -0.0000
vn -0.0000 -0.0000 1.0000
vn 1.0000 -0.0003 -0.0000
vn -1.0000 0.0003 -0.0000
vt 0.637338 0.228854
vt 0.710925 0.335231
vt 0.713318 0.412650
vt 0.993865 0.595489
vt 0.920278 0.489112
vt 0.917886 0.411693
vt 0.637338 0.596319
vt 0.960277 0.564248
vt 0.668840 0.562528
vt 0.939353 0.537156
vt 0.692707 0.533906
vt 0.926849 0.512670
vt 0.707084 0.510967
vt 0.715380 0.488921
vt 0.913778 0.469748
vt 0.720648 0.469699
vt 0.911411 0.450631
vt 0.721911 0.450822
vt 0.912780 0.431496
vt 0.719495 0.432012
vt 0.911709 0.392331
vt 0.718424 0.392847
vt 0.909293 0.373521
vt 0.719793 0.373712
vt 0.910555 0.354643
vt 0.717426 0.354595
vt 0.915823 0.335422
vt 0.924119 0.313376
vt 0.704355 0.311673
vt 0.938497 0.290437
vt 0.691851 0.287187
vt 0.962364 0.261815
vt 0.670927 0.260095
vt 0.993865 0.228024
vt 0.324478 0.394508
vt 0.455667 0.508655
vt 0.327739 0.419626
vt 0.521503 0.018310
vt 0.464812 0.183730
vt 0.448603 0.192046
vt 0.439156 0.210723
vt 0.572082 0.299405
vt 0.441226 0.230070
vt 0.661819 0.090990
vt 0.529769 0.039794
vt 0.324461 0.381478
vt 0.006412 0.428766
vt 0.143024 0.245919
vt 0.686916 0.650558
vt 0.335692 0.704286
vt 0.485801 0.501607
vt 0.518694 0.006805
vt 0.674575 0.085734
vt 0.597831 0.289469
vt 0.686916 0.078303
vt 0.437249 0.197589
vt 0.595656 0.275637
vt 0.585883 0.295492
vt 0.484401 0.485153
vt 0.335968 0.377276
vt 0.470673 0.506348
vt 0.187849 0.564325
vt 0.336958 0.688928
vt 0.201429 0.561347
vt 0.319043 0.705753
vt 0.185662 0.576528
vt 0.143675 0.852891
vt 0.024129 0.708771
vt 0.147600 0.839931
vt 0.037555 0.708387
vt 0.359154 0.372187
vt 0.220917 0.556662
vt 0.184623 0.600531
vt 0.149101 0.825490
vt 0.057205 0.707085
vt 0.297872 0.702038
vt 0.586883 0.257980
vt 0.477189 0.465177
vt 0.332162 0.667770
vt 0.038579 0.123050
vt 0.071498 0.095883
vt 0.071498 0.123050
vt 0.038579 0.095883
vt 0.071491 0.064607
vt 0.038573 0.064607
vt 0.071491 0.037440
vt 0.038579 0.006164
vt 0.071498 0.006164
vt 0.102767 0.037440
vt 0.102767 0.064607
vt 0.007297 0.064607
vt 0.038573 0.037440
vt 0.536808 0.853237
vt 0.007297 0.037440
s 0
usemtl マテリアル.001
f 2/1/1 28/2/1 20/3/1
f 3/4/2 11/5/2 19/6/2
f 4/7/3 5/8/3 3/4/3
f 6/9/4 7/10/4 5/8/4
f 8/11/5 9/12/5 7/10/5
f 10/13/6 11/5/6 9/12/6
f 12/14/7 13/15/7 11/5/7
f 14/16/8 15/17/8 13/15/8
f 16/18/9 17/19/9 15/17/9
f 18/20/10 19/6/10 17/19/10
f 20/3/11 21/21/11 19/6/11
f 22/22/12 23/23/12 21/21/12
f 24/24/13 25/25/13 23/23/13
f 26/26/14 27/27/14 25/25/14
f 28/2/15 29/28/15 27/27/15
f 30/29/16 31/30/16 29/28/16
f 32/31/17 33/32/17 31/30/17
f 34/33/18 1/34/18 33/32/18
f 51/35/19 67/36/19 68/37/19
f 43/38/20 61/39/20 46/40/20
f 47/41/21 63/42/21 64/43/21
f 43/38/22 60/44/22 59/45/22
f 41/46/23 35/47/23 37/48/23
f 38/49/24 40/50/24 42/51/24
f 35/52/25 44/53/25 43/38/25
f 38/54/25 44/53/25 36/55/25
f 37/56/25 45/57/25 38/54/25
f 35/52/25 46/40/25 37/56/25
f 37/56/26 48/58/26 47/41/26
f 38/54/26 49/59/26 48/58/26
f 41/46/26 49/59/26 42/51/26
f 41/46/26 47/41/26 50/60/26
f 41/46/27 52/61/27 51/35/27
f 40/50/27 52/61/27 42/51/27
f 39/62/27 53/63/27 40/50/27
f 41/46/27 54/64/27 39/62/27
f 39/62/28 56/65/28 55/66/28
f 36/67/28 56/65/28 40/50/28
f 35/68/28 57/69/28 36/67/28
f 39/62/28 58/70/28 35/68/28
f 60/44/25 61/39/25 59/45/25
f 63/42/26 65/71/26 64/43/26
f 67/36/27 69/72/27 68/37/27
f 72/73/28 74/74/28 73/75/28
f 50/60/29 64/43/29 65/71/29
f 55/66/30 71/76/30 72/73/30
f 45/57/31 60/44/31 44/53/31
f 51/35/32 69/72/32 54/64/32
f 49/59/33 63/42/33 48/58/33
f 55/66/34 73/75/34 58/70/34
f 46/40/35 62/77/35 45/57/35
f 53/63/36 67/36/36 52/61/36
f 50/60/37 66/78/37 49/59/37
f 56/65/38 74/74/38 71/76/38
f 54/64/39 70/79/39 53/63/39
f 58/70/40 74/74/40 57/69/40
f 76/80/41 77/81/41 75/82/41
f 78/83/42 81/84/42 77/81/42
f 82/85/43 79/86/43 81/84/43
f 79/86/44 76/87/44 75/88/44
f 81/84/23 75/89/23 77/90/23
f 78/91/24 80/92/24 82/85/24
f 6/9/1 4/7/1 2/1/1
f 2/1/1 34/33/1 28/2/1
f 34/33/1 32/31/1 28/2/1
f 32/31/45 30/29/45 28/2/45
f 28/2/1 26/26/1 24/24/1
f 24/24/45 22/22/45 28/2/45
f 22/22/45 20/3/45 28/2/45
f 20/3/45 18/20/45 12/14/45
f 18/20/45 16/18/45 12/14/45
f 16/18/1 14/16/1 12/14/1
f 12/14/45 10/13/45 8/11/45
f 8/11/1 6/9/1 2/1/1
f 12/14/1 8/11/1 20/3/1
f 8/11/1 2/1/1 20/3/1
f 33/32/46 1/34/46 3/4/46
f 3/4/46 5/8/46 11/5/46
f 5/8/2 7/10/2 11/5/2
f 7/10/46 9/12/46 11/5/46
f 11/5/46 13/15/46 15/17/46
f 15/17/2 17/19/2 11/5/2
f 17/19/2 19/6/2 11/5/2
f 19/6/2 21/21/2 27/27/2
f 21/21/2 23/23/2 27/27/2
f 23/23/46 25/25/46 27/27/46
f 27/27/46 29/28/46 31/30/46
f 31/30/2 33/32/2 3/4/2
f 27/27/2 31/30/2 19/6/2
f 31/30/2 3/4/2 19/6/2
f 4/7/3 6/9/3 5/8/3
f 6/9/4 8/11/4 7/10/4
f 8/11/5 10/13/5 9/12/5
f 10/13/6 12/14/6 11/5/6
f 12/14/7 14/16/7 13/15/7
f 14/16/8 16/18/8 15/17/8
f 16/18/9 18/20/9 17/19/9
f 18/20/10 20/3/10 19/6/10
f 20/3/11 22/22/11 21/21/11
f 22/22/12 24/24/12 23/23/12
f 24/24/13 26/26/13 25/25/13
f 26/26/14 28/2/14 27/27/14
f 28/2/15 30/29/15 29/28/15
f 30/29/16 32/31/16 31/30/16
f 32/31/17 34/33/17 33/32/17
f 34/33/18 2/1/18 1/34/18
f 51/35/19 52/61/19 67/36/19
f 43/38/20 59/45/20 61/39/20
f 47/41/21 48/58/21 63/42/21
f 43/38/22 44/53/22 60/44/22
f 41/46/23 39/62/23 35/47/23
f 38/49/24 36/93/24 40/50/24
f 35/52/25 36/55/25 44/53/25
f 38/54/25 45/57/25 44/53/25
f 37/56/25 46/40/25 45/57/25
f 35/52/25 43/38/25 46/40/25
f 37/56/26 38/54/26 48/58/26
f 38/54/26 42/51/26 49/59/26
f 41/46/26 50/60/26 49/59/26
f 41/46/26 37/56/26 47/41/26
f 41/46/27 42/51/27 52/61/27
f 40/50/27 53/63/27 52/61/27
f 39/62/27 54/64/27 53/63/27
f 41/46/27 51/35/27 54/64/27
f 39/62/28 40/50/28 56/65/28
f 36/67/28 57/69/28 56/65/28
f 35/68/28 58/70/28 57/69/28
f 39/62/28 55/66/28 58/70/28
f 60/44/25 62/77/25 61/39/25
f 63/42/26 66/78/26 65/71/26
f 67/36/27 70/79/27 69/72/27
f 72/73/28 71/76/28 74/74/28
f 50/60/29 47/41/29 64/43/29
f 55/66/30 56/65/30 71/76/30
f 45/57/31 62/77/31 60/44/31
f 51/35/32 68/37/32 69/72/32
f 49/59/33 66/78/33 63/42/33
f 55/66/34 72/73/34 73/75/34
f 46/40/35 61/39/35 62/77/35
f 53/63/36 70/79/36 67/36/36
f 50/60/37 65/71/37 66/78/37
f 56/65/38 57/69/38 74/74/38
f 54/64/39 69/72/39 70/79/39
f 58/70/40 73/75/40 74/74/40
f 76/80/41 78/83/41 77/81/41
f 78/83/42 82/85/42 81/84/42
f 82/85/43 80/92/43 79/86/43
f 79/86/44 80/92/44 76/87/44
f 81/84/23 79/86/23 75/89/23
f 78/91/24 76/94/24 80/92/24
